#define degre_celsius_width 8
#define degre_celsius_height 12
static unsigned char degre_celsius_bits[] = {
   0x00, 0x00, 0x0e, 0x0a, 0x0e, 0x00, 0x70, 0x10, 0x10, 0x10, 0x70, 0x00 };
