#define file_enreg_width 8
#define file_enreg_height 12
static unsigned char file_enreg_bits[] = {
   0x18, 0x18, 0x18, 0x7e, 0x3c, 0x18, 0x7e, 0x00, 0x7e, 0x00, 0x7e, 0x00 };
