#define sd_card_warning_width 8
#define sd_card_warning_height 12
static unsigned char sd_card_warning_bits[] = {
   0x3f, 0x55, 0x81, 0x99, 0x99, 0x99, 0x99, 0x99, 0x81, 0x99, 0x81, 0xff };
