#define sd_card_width 8
#define sd_card_height 12
static unsigned char sd_card_bits[] = {
   0x3f, 0x55, 0x81, 0x81, 0xbd, 0xa5, 0xa5, 0xa5, 0xbd, 0x81, 0x81, 0xff };
