#define thermo_width 8
#define thermo_height 12
static unsigned char thermo_bits[] = {
   0x18, 0x24, 0x34, 0x24, 0x34, 0x24, 0x34, 0x24, 0x3c, 0x7e, 0x7e, 0x3c };
